<?xml version="1.0" encoding="UTF-8" standalone="no"?>
<!-- Created with Inkscape (http://www.inkscape.org/) -->

<svg
   width="210mm"
   height="297mm"
   viewBox="0 0 210 297"
   version="1.1"
   id="svg414"
   xml:space="preserve"
   inkscape:version="1.2.2 (732a01da63, 2022-12-09)"
   sodipodi:docname="website_favicon.svg"
   inkscape:export-filename="180.png"
   inkscape:export-xdpi="467.02298"
   inkscape:export-ydpi="467.02298"
   xmlns:inkscape="http://www.inkscape.org/namespaces/inkscape"
   xmlns:sodipodi="http://sodipodi.sourceforge.net/DTD/sodipodi-0.dtd"
   xmlns="http://www.w3.org/2000/svg"
   xmlns:svg="http://www.w3.org/2000/svg"><sodipodi:namedview
     id="namedview416"
     pagecolor="#545454"
     bordercolor="#000000"
     borderopacity="0.25"
     inkscape:showpageshadow="2"
     inkscape:pageopacity="0"
     inkscape:pagecheckerboard="0"
     inkscape:deskcolor="#d1d1d1"
     inkscape:document-units="mm"
     showgrid="false"
     inkscape:zoom="13.455443"
     inkscape:cx="195.75721"
     inkscape:cy="341.7576"
     inkscape:window-width="2736"
     inkscape:window-height="1784"
     inkscape:window-x="-12"
     inkscape:window-y="-12"
     inkscape:window-maximized="1"
     inkscape:current-layer="layer1" /><defs
     id="defs411"><marker
       markerWidth="15"
       markerHeight="15.863477"
       refX="39.098476"
       refY="41.349182"
       orient="30"
       id="marker16833"
       viewBox="0 0 78.196951 82.698369"
       preserveAspectRatio="xMidYMid"><path
         id="rect14457"
         style="fill:#55198b;stroke-width:5.00031"
         d="M 8.6210646,0.59414173 39.098457,0.29707087 68.981367,0 78.196951,82.698369 H 0 Z"
         sodipodi:nodetypes="cccccc" /></marker><marker
       markerWidth="15"
       markerHeight="15.863477"
       refX="39.098476"
       refY="41.349182"
       orient="30"
       id="marker16833-3"
       viewBox="0 0 78.196951 82.698369"
       preserveAspectRatio="xMidYMid"><path
         id="rect14457-4"
         style="fill:#55198b;stroke-width:5.00031"
         d="M 8.6210646,0.59414173 39.098457,0.29707087 68.981367,0 78.196951,82.698369 H 0 Z"
         sodipodi:nodetypes="cccccc" /></marker><marker
       markerWidth="15"
       markerHeight="15.863477"
       refX="39.098476"
       refY="41.349182"
       orient="30"
       id="marker21667"
       viewBox="0 0 78.196951 82.698369"
       preserveAspectRatio="xMidYMid"><path
         id="path21665"
         style="fill:#55198b;stroke-width:5.00031"
         d="M 8.6210646,0.59414173 39.098457,0.29707087 68.981367,0 78.196951,82.698369 H 0 Z"
         sodipodi:nodetypes="cccccc" /></marker></defs><g
     inkscape:label="Layer 1"
     inkscape:groupmode="layer"
     id="layer1"><rect
       style="fill:#55198b;fill-opacity:1;stroke:#55188b;stroke-width:1.323;stroke-miterlimit:4;stroke-dasharray:none;stroke-dashoffset:0;stroke-opacity:0.27352297"
       id="rect24328"
       width="8.4666662"
       height="8.4666662"
       x="45.939842"
       y="80.978706" /><path
       id="path5966"
       style="fill:#55198b;fill-opacity:1;stroke:#ffffff;stroke-width:0.143084;stroke-miterlimit:4;stroke-dasharray:none;stroke-dashoffset:0;stroke-opacity:1;marker-mid:"
       d="m 53.701118,85.107438 c 0,0.939778 -0.38262,1.790589 -1.001232,2.406454 -0.618611,0.615865 -1.473215,0.996786 -2.417185,0.996786 -0.943969,0 -1.798573,-0.380921 -2.417186,-0.996786 -0.618611,-0.615865 -1.00123,-1.466675 -1.00123,-2.406454 0,-0.939779 0.382619,-1.790589 1.00123,-2.406456 0.618611,-0.615865 1.473217,-0.996785 2.417186,-0.996785 0.943971,0 1.798574,0.380921 2.417185,0.996787 0.618612,0.615866 1.001232,1.466675 1.001232,2.406454 z"
       sodipodi:nodetypes="sssssssss" /><path
       id="path5966-9"
       style="fill:#55198b;fill-opacity:1;stroke:#ffffff;stroke-width:0.20112;stroke-miterlimit:4;stroke-dasharray:none;stroke-dashoffset:0;stroke-opacity:1"
       d="m 54.967448,85.212039 c 0,1.323901 -0.536618,2.52247 -1.404211,3.390063 -0.867592,0.867592 -2.06616,1.40421 -3.390061,1.40421 -1.323901,0 -2.522469,-0.536618 -3.390063,-1.40421 -0.867593,-0.867593 -1.404211,-2.066161 -1.404211,-3.390063 0,-1.323901 0.536618,-2.522469 1.404211,-3.390064 0.867591,-0.867592 2.066162,-1.404209 3.390063,-1.404209 1.323902,0 2.522469,0.536618 3.390061,1.404211 0.867593,0.867594 1.404211,2.066161 1.404211,3.390062 z"
       sodipodi:nodetypes="sssssssss" /><text
       xml:space="preserve"
       style="font-size:7.88065px;fill:#55198b;fill-opacity:1;stroke:#ffffff;stroke-width:0.197028;stroke-dasharray:none;stroke-dashoffset:0;stroke-opacity:1"
       x="46.327126"
       y="87.405975"
       id="text2939"><tspan
         sodipodi:role="line"
         id="tspan2937"
         style="font-style:normal;font-variant:normal;font-weight:normal;font-stretch:normal;font-size:7.88065px;font-family:Gabriola;-inkscape-font-specification:Gabriola;fill:#ffffff;fill-opacity:1;stroke:#ffffff;stroke-width:0.197028;stroke-opacity:1"
         x="46.327126"
         y="87.405975">RA</tspan></text></g></svg>
